# xmcd
#
# Track frame offsets: 
#        150
#        18071
#        32570
#        45599
#        66800
#        80500
#        94010
#        110008
#        124339
#        138859
#        148835
#        167338
#
# Disc length: 2488 seconds
#
# Revision: 0
# Processed by: cddbd v1.5.2PL0 Copyright (c) Steve Scherf et al.
# Submitted via: ExactAudioCopy v1.1
#
DISCID=9809b60c
DTITLE=Jesse Dayton - The Revealer
DYEAR=2016
DGENRE=Country
TTITLE0=Daddy was a Badass
TTITLE1=Holy Ghost Rock N Roller
TTITLE2=The Way We Are
TTITLE3=Eatin' Crow and Drinkin' Sand
TTITLE4=Possum Ran Over My Grave
TTITLE5=Take Out the Trash
TTITLE6=Mrs. Victoria (Beautiful Thing)
TTITLE7=3 Pecker Goat
TTITLE8=Match Made in Heaven
TTITLE9=I'm at Home Gettin' Hammered (While She's Out Gettin' Nailed)
TTITLE10=Never Started Livin'
TTITLE11=Big State Motel
EXTD=
EXTT0=
EXTT1=
EXTT2=
EXTT3=
EXTT4=
EXTT5=
EXTT6=
EXTT7=
EXTT8=
EXTT9=
EXTT10=
EXTT11=
PLAYORDER=
